# xmcd
#
# Track frame offsets:
#	182
#	12832
#	24455
#	34290
#	51262
#	62945
#	75600
#	91435
#	111800
#	122325
#
# Disc length: 1830 seconds
#
# Revision: 1
# Processed by: cddbd v1.4b42PL0 Copyright (c) Steve Scherf et al.
# Submitted via: audiograbber 1.80
#
DISCID=7a07240a
DTITLE=Albert King - Born Under A Bad Sign And Other Hits
DYEAR=1900
DGENRE=
TTITLE0=Born Under A Bad Sign
TTITLE1=Crosscut Saw
TTITLE2=Down Don't Bother Me
TTITLE3=Funk-Shun
TTITLE4=Kansas City
TTITLE5=Oh, Pretty Woman (Cant't You Love Me)
TTITLE6=I Almost Lost My Mind
TTITLE7=Personal Manager
TTITLE8=Overall Junction
TTITLE9=Laundromat Blues
EXTD=
EXTT0=
EXTT1=
EXTT2=
EXTT3=
EXTT4=
EXTT5=
EXTT6=
EXTT7=
EXTT8=
EXTT9=
PLAYORDER=
